<?xml version="1.0" encoding="UTF-8" standalone="no"?>
<!-- Created with Inkscape (http://www.inkscape.org/) -->

<svg
   version="1.1"
   id="svg302"
   width="345.94888"
   height="366.34946"
   viewBox="0 0 345.94888 366.34945"
   sodipodi:docname="logo.svg"
   inkscape:version="1.2.2 (732a01da63, 2022-12-09)"
   xmlns:inkscape="http://www.inkscape.org/namespaces/inkscape"
   xmlns:sodipodi="http://sodipodi.sourceforge.net/DTD/sodipodi-0.dtd"
   xmlns="http://www.w3.org/2000/svg"
   xmlns:svg="http://www.w3.org/2000/svg">
  <defs
     id="defs306" />
  <sodipodi:namedview
     id="namedview304"
     pagecolor="#ffffff"
     bordercolor="#000000"
     borderopacity="0.25"
     inkscape:showpageshadow="2"
     inkscape:pageopacity="0.0"
     inkscape:pagecheckerboard="false"
     inkscape:deskcolor="#d1d1d1"
     showgrid="false"
     inkscape:zoom="1.6191406"
     inkscape:cx="50.644149"
     inkscape:cy="213.69361"
     inkscape:window-width="1920"
     inkscape:window-height="1009"
     inkscape:window-x="1432"
     inkscape:window-y="-8"
     inkscape:window-maximized="1"
     inkscape:current-layer="g308" />
  <g
     inkscape:groupmode="layer"
     inkscape:label="Image"
     id="g308"
     transform="translate(-20.373224,-13.637175)">
    <path
       style="fill:#000000;stroke:#ac3a12;stroke-width:2;stroke-dasharray:none;stroke-opacity:1"
       d="m 210.64241,378.4931 c 0.67896,-0.27143 1.78999,-0.27143 2.46896,0 0.67896,0.27143 0.12345,0.49352 -1.23448,0.49352 -1.35793,0 -1.91345,-0.22209 -1.23448,-0.49352 z m 12.5156,-2.78588 c 4.30351,-1.33347 8.03816,-2.21288 8.29922,-1.95425 0.83655,0.82881 -6.08566,3.17082 -11.18586,3.78454 -4.50157,0.54168 -4.24646,0.37995 2.88664,-1.83029 z m 9.45818,-2.35644 c 0,-0.41885 1.88876,-1.59478 4.19724,-2.61318 2.30848,-1.0184 8.3452,-4.16735 13.41496,-6.99766 5.06974,-2.83032 9.4334,-5.14603 9.69701,-5.14603 0.59954,0 15.97063,-10.79976 19.74184,-13.87067 12.67925,-10.32471 28.85435,-28.71087 34.98747,-39.77008 7.79137,-14.04936 10.4847,-20.05141 13.69145,-30.51115 2.932,-9.56354 5.99136,-31.78763 5.99136,-43.52297 0,-13.32671 -3.45552,-33.6837 -7.89096,-46.487 -4.40866,-12.72598 -13.38967,-32.34627 -17.58622,-38.41962 -1.57428,-2.27832 -5.04089,-7.42261 -7.7036,-11.43174 -7.03951,-10.59915 -18.89682,-22.6752 -36.05419,-36.719352 -3.30865,-2.708295 -11.58519,-8.337725 -12.25835,-8.337725 -0.30738,0 -1.40806,-0.77052 -2.44593,-1.712266 -1.55337,-1.409498 -19.72332,-10.759946 -27.16415,-13.978966 -9.00958,-3.897684 -13.35396,-5.19654 -27.68007,-8.275565 -16.06372,-3.452485 -47.08165,-2.532069 -66.30239,1.967432 -5.71599,1.338092 -10.86419,2.144207 -11.44044,1.791362 -0.58722,-0.359556 -0.76026,-0.180697 -0.3937,0.406923 0.3943,0.63207 -1.27989,1.684859 -4.21554,2.65089 -2.67827,0.881338 -5.40261,2.238753 -6.05409,3.016464 -0.65149,0.777721 -1.63548,1.414038 -2.18666,1.414038 -0.55117,0 -4.06842,2.001375 -7.816132,4.447507 -8.711731,5.686151 -11.28297,6.651966 -6.256613,2.350119 2.167642,-1.855205 4.38971,-3.696683 4.937929,-4.092178 0.548209,-0.395484 2.353713,-1.792751 4.012235,-3.105032 3.185241,-2.520269 17.641441,-8.779813 25.130701,-10.881604 15.74557,-4.418849 33.94396,-5.785863 54.28673,-4.077864 5.14338,0.431844 9.10941,0.545235 8.81341,0.251987 -1.00515,-0.995853 -17.12592,-3.387947 -30.50982,-4.52723 -22.76004,-1.937424 -44.55854,0.52546 -60.095918,6.789867 -7.859918,3.168983 -22.459892,11.734371 -25.508667,14.965201 -1.184471,1.255208 -2.739919,2.766865 -3.45655,3.35924 -6.71269,5.548798 -19.341155,23.608852 -23.50695,33.617432 -8.60991,20.68583 -10.320527,28.28133 -14.222143,63.14927 l -1.204321,10.76282 -1.2816,-5.38141 c -0.704879,-2.95977 -2.14834,-8.24334 -3.207697,-11.74125 -1.195467,-3.94733 -2.356022,-12.37142 -3.059448,-22.20753 -0.954051,-13.34064 -0.884836,-18.21637 0.437523,-30.82078 1.604082,-15.2897 5.31273,-29.292294 9.746436,-36.799258 1.051127,-1.779719 1.911137,-3.790545 1.911137,-4.468504 0,-1.985123 5.166624,-11.420215 9.443739,-17.245803 2.173054,-2.959773 4.665927,-6.482148 5.539733,-7.827499 3.691062,-5.682971 17.31861,-18.045049 22.507543,-20.417467 1.921585,-0.878558 3.715989,-1.840763 3.987575,-2.138247 3.228733,-3.536533 23.036463,-10.979723 36.817678,-13.835038 29.8801,-6.190838 95.83618,0.946159 126.62775,13.702176 11.11443,4.60437 18.48391,7.891382 22.71448,10.131367 4.8789,2.583252 16.59971,10.088161 18.41287,11.789879 0.73636,0.691099 4.00532,3.219049 7.26435,5.61765 11.87797,8.742035 29.05625,26.466861 37.77517,38.977026 1.76531,2.53292 4.43179,6.109538 5.92551,7.948028 9.7205,11.96419 24.05222,44.45554 28.73631,65.14791 1.09636,4.84326 2.73472,11.98627 3.64082,15.87333 2.56935,11.02236 2.36179,33.01281 -0.45048,47.7251 -3.11284,16.28473 -5.54808,25.04718 -8.98532,32.33088 -1.6185,3.42969 -2.94273,6.45942 -2.94273,6.73274 0,1.44923 -10.11086,20.58994 -13.99394,26.4917 -4.33019,6.58129 -18.44115,23.23059 -24.88479,29.36116 -5.09126,4.8439 -17.06148,14.1793 -18.18126,14.1793 -0.57363,0 -1.1911,0.37181 -1.37217,0.82624 -0.38946,0.97748 -12.09454,8.95814 -13.13875,8.95814 -0.39541,0 -3.23018,1.52914 -6.2995,3.39809 -5.41836,3.29931 -32.44971,15.54463 -37.92401,17.17974 -1.49373,0.44616 -2.71586,0.4685 -2.71586,0.0496 z m -71.10617,-14.72729 c -36.52411,-5.50427 -67.417036,-22.51288 -91.598547,-50.43109 -7.84302,-9.05498 -17.228225,-23.03028 -16.583677,-24.69438 0.282025,-0.72812 0.140425,-1.09588 -0.314665,-0.81723 -0.455089,0.27866 -1.392969,-0.68914 -2.084171,-2.15066 -0.691201,-1.46152 -1.908164,-3.8913 -2.704345,-5.39951 -1.385534,-2.62461 -4.339738,-10.6604 -8.164322,-22.20796 -2.68168,-8.09675 -5.20037,-20.65928 -4.806155,-23.97171 0.248862,-2.09112 0.859614,-0.47204 2.123615,5.62963 0.975864,4.71073 3.342968,12.63607 5.260247,17.61188 1.91727,4.97581 3.988533,10.58796 4.602792,12.47145 0.614268,1.8835 2.355589,5.53532 3.869617,8.11517 1.514028,2.57985 2.752777,5.07487 2.752777,5.54448 0,0.46962 0.352242,1.00061 0.782751,1.17999 0.430518,0.17938 1.843753,2.08733 3.140522,4.2399 1.296759,2.15256 3.642108,5.55705 5.211865,7.56553 1.569758,2.00849 2.567762,4.1108 2.217792,4.67182 -0.349971,0.56102 -0.176818,0.89905 0.384783,0.75119 0.56161,-0.14787 4.261057,3.03908 8.220989,7.08211 8.900755,9.08753 18.953538,17.83614 25.559627,22.24373 20.730615,13.8315 52.941695,23.73015 77.219965,23.73015 11.49625,0 26.81304,-2.16954 34.28782,-4.85668 1.35793,-0.48818 7.13531,-2.28614 12.83862,-3.99549 5.7033,-1.70935 11.25847,-3.90437 12.34482,-4.87781 1.08634,-0.97343 4.72114,-3.24168 8.07733,-5.04054 7.18396,-3.85048 10.84464,-6.62204 21.52375,-16.29596 7.56093,-6.84923 10.29508,-10.12083 17.71207,-21.19368 3.20027,-4.7777 8.48544,-15.38317 8.48544,-17.02728 0,-0.45378 0.8976,-2.83543 1.99467,-5.29256 2.15282,-4.82174 4.28245,-18.30742 3.08108,-19.51064 -0.40424,-0.40487 -2.17801,2.89736 -3.94169,7.33828 -7.28772,18.35024 -12.35209,26.3485 -24.49632,38.68749 -7.93944,8.06674 -15.25374,13.35548 -28.97113,20.94808 -12.78919,7.07883 -16.65599,8.43154 -34.57415,12.09492 -10.48755,2.14419 -32.76339,2.422 -44.44136,0.55425 -11.84271,-1.89411 -27.35573,-6.32586 -32.59033,-9.3104 -2.44427,-1.39362 -5.99958,-3.04538 -7.90068,-3.67057 -1.90111,-0.6252 -4.78979,-2.12614 -6.41931,-3.33544 -1.62952,-1.20929 -4.86443,-3.2463 -7.18872,-4.52669 -8.684981,-4.78435 -23.380335,-19.17554 -33.254,-32.56573 -5.786926,-7.84794 -12.940207,-23.18104 -15.309672,-32.81637 -0.463178,-1.88349 -1.799134,-6.9469 -2.968781,-11.25203 -3.075688,-11.3206 -3.863939,-34.76702 -1.60939,-47.87104 3.12802,-18.18085 10.247703,-38.11437 17.058953,-47.76118 1.800912,-2.55065 3.27439,-4.84407 3.27439,-5.09649 0,-0.25241 1.765023,-2.78863 3.922276,-5.63604 7.094332,-9.36399 16.551413,-17.71559 36.074944,-31.857987 1.08098,-0.783033 11.78681,-5.986697 17.28275,-8.400443 5.64084,-2.477375 18.33484,-5.413431 33.23734,-7.687642 l 13.97942,-2.133336 13.61244,2.212951 c 7.48683,1.217118 14.30629,2.566315 15.15435,2.998216 0.84806,0.431893 3.31958,1.098414 5.49227,1.481149 21.66132,3.815848 53.27218,22.491502 72.00069,42.537912 2.22387,2.38036 5.83873,6.12289 8.03302,8.31672 2.19429,2.19382 5.06155,5.52982 6.37172,7.41331 1.31017,1.88349 2.63547,3.64468 2.9451,3.91375 1.70966,1.48566 9.40358,14.5136 13.57915,22.99328 9.42964,19.14955 12.90334,31.11506 13.80921,47.56707 1.77895,32.30859 -12.79747,70.91189 -34.12848,90.38376 -2.36342,2.15744 -8.44991,7.90812 -13.52554,12.77931 -5.07563,4.87119 -10.47474,9.47197 -11.99803,10.22395 -1.52329,0.75199 -4.26097,2.43819 -6.08373,3.7471 -4.95114,3.5554 -28.54975,14.94723 -34.21059,16.51459 -24.14815,6.68606 -42.15589,10.13919 -51.85181,9.94296 -2.44428,-0.0495 -9.55489,-0.86014 -15.80137,-1.80151 z m -23.4968,-58.002 c 3.03263,-2.2871 6.21803,-5.3121 7.07866,-6.72224 1.88921,-3.09544 4.00214,-3.97227 17.40572,-7.22305 5.70331,-1.38321 12.36951,-3.16752 14.81379,-3.9651 14.92023,-4.8686 31.79771,-10.10663 34.36384,-10.66502 2.93388,-0.63842 3.02072,-0.54516 4.64426,4.98789 3.84458,13.10238 12.6294,16.39957 21.47707,8.06094 3.71858,-3.50463 3.92857,-3.99443 3.32245,-7.74974 -0.94087,-5.82938 -1.0447,-6.27162 -1.59917,-6.81063 -1.48521,-1.44381 -4.24678,-7.85059 -3.64213,-8.44965 0.38827,-0.38466 2.2134,-0.73227 4.05584,-0.77246 1.84244,-0.0402 3.16838,-0.36675 2.94654,-0.72572 -0.43719,-0.7074 6.87833,-3.21325 12.45057,-4.26481 4.81666,-0.90897 13.2686,-5.22526 14.71026,-7.51234 1.49059,-2.36471 2.53671,-10.57917 1.74517,-13.70369 -0.75796,-2.99201 -6.75765,-5.66571 -12.71365,-5.66571 -4.21768,0 -10.08166,2.27956 -22.5211,8.75484 -7.63399,3.97383 -7.96608,3.74406 -11.94609,-8.26562 -5.26444,-15.88544 -8.72027,-27.29039 -8.37342,-27.63403 0.16824,-0.16668 2.92361,-1.20389 6.12306,-2.3049 3.19944,-1.10102 11.51729,-4.4847 18.4841,-7.5193 14.25377,-6.20865 13.59481,-5.1117 9.21729,-15.34375 -2.594,-6.06326 -4.71465,-8.35036 -7.7426,-8.35036 -1.63372,0 -10.97095,3.29827 -18.09197,6.39078 -2.83191,1.22985 -10.19803,3.97688 -13.33241,4.97204 -1.13759,0.36118 -2.48728,-2.54899 -5.81582,-12.53992 -7.48834,-22.47697 -9.6856,-28.41601 -13.86321,-37.47118 -6.51959,-14.13157 -15.51718,-21.03641 -27.41221,-21.03641 -9.13213,0 -16.88895,6.34833 -20.1452,16.48723 -1.91879,5.97448 -2.13175,9.39309 -2.60637,41.84083 l -0.51684,35.33477 -8.02705,2.51963 c -4.41487,1.3858 -10.58243,3.05702 -13.70567,3.71382 l -5.67861,1.19418 v 9.99284 9.99284 l 3.70344,0.55579 c 2.0369,0.30568 7.36493,1.07233 11.84009,1.70368 4.47515,0.63135 7.95026,1.44668 7.72247,1.81184 -0.22779,0.36516 -1.36153,7.6902 -2.51942,16.27785 -1.15787,8.58765 -2.5663,17.45179 -3.12981,19.69808 -0.96809,3.85899 -1.2955,4.14853 -5.93888,5.25215 -8.05028,1.91334 -11.67789,6.42912 -11.67789,14.53704 0,4.10816 0.50582,5.49323 3.0577,8.37274 3.93318,4.43814 7.31683,6.16919 12.31143,6.2984 3.28384,0.0849 5.01251,-0.65084 9.52577,-4.05457 z m 16.99511,-37.66984 c 0.7957,-4.35848 4.12667,-23.10145 5.99092,-33.71014 0.72844,-4.1453 1.57375,-7.93658 1.87846,-8.42505 0.66547,-1.06676 12.34809,-5.12082 21.60508,-7.4973 3.67268,-0.94286 6.9209,-2.10432 7.21827,-2.58102 0.29738,-0.4767 1.11932,-0.86673 1.82655,-0.86673 1.18663,0 3.14779,5.98781 6.56951,20.05797 0.65436,2.69071 2.41747,8.52718 3.91804,12.96997 l 2.72831,8.07777 -2.61811,0.57222 c -2.75854,0.60291 -7.90624,2.20747 -32.63842,10.17354 -8.36357,2.69385 -15.64343,4.89791 -16.17748,4.89791 -0.58272,0 -0.70313,-1.46717 -0.30113,-3.66914 z m 9.22471,-95.14269 c 0.13972,-15.88084 0.48891,-29.89419 0.77597,-31.14075 0.78876,-3.42527 3.58595,-2.27888 6.00116,2.45945 1.15128,2.2587 2.34341,4.90048 2.64917,5.87063 0.30575,0.97015 1.95125,5.50643 3.65665,10.08063 1.70539,4.57419 5.0274,13.82043 7.38224,20.54718 l 4.28152,12.23047 -3.61211,1.32086 c -1.98667,0.72647 -7.61184,2.71247 -12.50039,4.41333 l -8.88827,3.09248 z M 34.304002,223.08028 c 0.02015,-1.61442 0.241454,-2.15642 0.491857,-1.20443 0.250392,0.952 0.233929,2.27289 -0.03654,2.93532 -0.270529,0.66247 -0.475394,-0.11643 -0.455267,-1.73085 z M 81.021783,92.491683 c 2.715861,-2.663326 5.382342,-4.857355 5.925514,-4.875623 0.543173,-0.0183 -1.380299,2.164637 -4.274379,4.850908 -6.807014,6.31824 -8.088357,6.337418 -1.651135,0.02475 z"
       id="path429"
       sodipodi:nodetypes="ssssssssssssssssssssssssssssssssssssssssssscssssssssscsssssssssssssssssssssssssssssssssssssssssssssssssssssssssssssssssssssscsssssssssssssssssssssssssssssssssssssssssssssscsscccsssssssssssssssssscsssssssssscsscsssssssssss" />
    <path
       style="fill:#ff2a2a;stroke:#ac3a12;stroke-width:2;stroke-dasharray:none;stroke-opacity:1;stop-color:#000000"
       d="m 167.22938,359.05845 c -43.62556,-5.72307 -78.002999,-25.4387 -103.61825,-59.42561 -5.07044,-6.72758 -9.91321,-14.60716 -9.91321,-16.1296 0,-0.55302 -0.429637,-1.16883 -0.95475,-1.36848 -2.446433,-0.93009 -12.186579,-26.53146 -15.112708,-39.72282 -2.478473,-11.17328 -2.566437,-14.91363 -0.13329,-5.66772 2.784813,10.58223 9.451629,28.72359 13.294341,36.17579 1.723217,3.34185 5.552385,9.54067 8.509263,13.77515 2.956878,4.23447 5.376142,8.25643 5.376142,8.93769 0,0.68126 0.285536,1.23865 0.634524,1.23865 0.348987,0 4.819079,4.02448 9.933539,8.94329 16.702112,16.0632 24.818829,22.06276 38.958639,28.7967 14.02671,6.68008 27.60762,11.01012 42.98165,13.70399 6.26104,1.09707 10.14669,1.37589 19.41644,1.39321 17.20598,0.0322 25.672,-1.44632 45.44885,-7.93715 9.59063,-3.14767 11.66914,-4.09242 20.34331,-9.24667 25.45624,-15.12627 43.00141,-35.60169 51.26355,-59.82515 3.28287,-9.62492 5.03508,-21.15029 3.21548,-21.15029 -0.86876,0 -2.35647,2.95756 -7.14336,14.20091 -5.70233,13.39353 -11.01239,21.02632 -22.49745,32.33831 -9.92065,9.77114 -21.36736,17.47654 -36.81964,24.78532 -10.50814,4.97024 -24.78142,8.16512 -40.4977,9.06486 -23.27396,1.33241 -44.17,-2.28318 -63.32848,-10.95757 -9.67712,-4.38151 -9.54679,-4.3128 -17.07844,-9.00469 -7.84765,-4.88875 -12.724325,-8.77556 -19.811164,-15.78992 -18.274986,-18.08807 -26.884924,-33.06741 -33.233368,-57.81854 -3.39693,-13.24384 -3.682243,-15.84399 -3.659387,-33.34934 0.01966,-15.06182 0.118728,-16.46762 1.666369,-23.64758 2.948469,-13.67881 8.743412,-30.45633 13.096628,-37.91736 7.933762,-13.59779 15.970251,-23.41464 26.154809,-31.94901 19.153523,-16.050122 31.803873,-23.189323 48.482563,-27.361038 8.36797,-2.093019 31.18934,-6.046505 35.31234,-6.117376 7.42412,-0.127613 39.64756,6.853501 49.71047,10.769627 13.08512,5.09226 29.36356,14.606017 41.91279,24.495457 7.83225,6.17222 23.46508,21.85959 29.44599,29.54872 13.06648,16.79843 25.28489,42.77229 28.80175,61.22663 1.63106,8.55881 1.48247,28.57843 -0.283,38.13147 -3.36172,18.19037 -10.0484,35.08484 -19.74773,49.8943 -2.9663,4.52913 -6.3856,8.29446 -16.81344,18.51497 -14.26139,13.97785 -19.07232,18.00923 -27.73518,23.24096 -7.51515,4.53861 -27.07141,13.9924 -32.83643,15.87364 -11.49796,3.75198 -34.43781,8.80186 -45.26433,9.96429 -7.18599,0.77155 -6.66757,0.79017 -17.47813,-0.62802 z M 133.7834,303.73287 c 3.2889,-1.6755 8.68063,-6.05333 11.3597,-9.22355 3.0385,-3.59554 4.83991,-4.34865 18.98529,-7.93708 5.49273,-1.39341 18.09431,-5.09357 28.00351,-8.22259 9.90922,-3.12902 18.97127,-5.74828 20.13793,-5.82059 2.12059,-0.13144 2.12163,-0.13021 3.6901,4.40073 2.01034,5.80738 3.06613,7.71447 5.57314,10.06688 4.13645,3.88139 9.40491,3.72275 14.98496,-0.45119 4.74799,-3.55157 5.28926,-4.62278 4.79174,-9.48303 -0.3036,-2.9657 -1.08332,-5.39239 -2.89182,-8.99992 -1.36189,-2.71663 -2.31551,-5.19687 -2.11916,-5.51162 0.19635,-0.31476 1.79211,-0.70891 3.54614,-0.87589 1.75403,-0.16698 3.29158,-0.6081 3.4168,-0.98027 0.21007,-0.62436 3.15159,-1.61036 14.46258,-4.84781 2.34828,-0.67214 6.05369,-2.28428 8.23424,-3.58254 3.49669,-2.08187 4.08748,-2.70916 5.00536,-5.31457 0.6387,-1.81298 1.05101,-4.85909 1.0674,-7.88579 0.0258,-4.76882 -0.0347,-4.98289 -1.83206,-6.48127 -2.22838,-1.85768 -7.11433,-3.39223 -10.80075,-3.39223 -3.75159,0 -10.40236,2.3496 -19.65916,6.94522 -4.35614,2.16264 -8.46679,3.93208 -9.13478,3.93208 -0.668,0 -1.63782,-0.64001 -2.15514,-1.42224 -1.98987,-3.00879 -12.25263,-35.33618 -11.46079,-36.10112 0.26364,-0.25467 2.74185,-1.27809 5.50712,-2.27425 9.46757,-3.41058 27.08798,-11.11923 28.93402,-12.65818 1.52104,-1.26802 1.79074,-1.86878 1.53629,-3.42217 -0.5472,-3.34079 -4.26842,-11.30434 -6.25983,-13.3963 -3.19538,-3.35671 -4.43757,-3.08617 -28.19663,6.14094 -6.78682,2.63573 -7.58765,2.82257 -8.44738,1.9708 -0.52237,-0.51754 -3.76284,-9.06219 -7.20105,-18.98814 -9.40498,-27.15178 -13.1627,-35.43266 -18.95763,-41.77695 -5.73278,-6.27624 -11.94064,-9.20426 -19.51448,-9.20426 -7.48379,0 -13.21875,3.04971 -17.39969,9.25272 -5.20607,7.72392 -5.78371,12.87552 -6.42989,57.34448 l -0.39256,27.01592 -5.87542,1.8361 c -3.23147,1.00985 -9.37495,2.69173 -13.65219,3.73749 l -7.77679,1.90139 v 10.13952 10.13951 l 1.67735,0.3487 c 0.92254,0.19179 5.48038,0.89526 10.12853,1.56326 11.66042,1.67577 11.50597,1.62645 11.10165,3.54515 -0.18408,0.87356 -1.30383,8.20336 -2.48833,16.28844 -3.32295,22.68137 -2.84528,21.46257 -9.13523,23.30873 -4.99392,1.46575 -7.96054,3.50662 -9.53348,6.55851 -1.58736,3.07986 -2.20809,9.63586 -1.19911,12.66479 0.92641,2.78104 5.57103,7.52414 8.78235,8.96856 3.23585,1.45546 8.91403,1.54544 11.58715,0.18363 z"
       id="path374" />
    <path
       style="fill:#ff2a2a;stroke:#ac3a12;stroke-width:2;stroke-dasharray:none;stroke-opacity:1;stop-color:#000000"
       d="m 164.456,172.2358 c 0.31379,-25.73918 0.6974,-35.46968 1.44564,-36.66914 0.84849,-1.36016 2.74937,0.27177 4.83736,4.15295 3.19389,5.93685 18.05061,47.52328 17.17024,48.06234 -0.7529,0.461 -22.71411,8.1724 -23.27409,8.1724 -0.25757,0 -0.33818,-10.67335 -0.17915,-23.71855 z"
       id="path376" />
    <path
       style="fill:#ff2a2a;stroke:#ac3a12;stroke-width:2;stroke-dasharray:none;stroke-opacity:1;stop-color:#000000"
       d="m 154.94635,265.59927 c -0.009,-1.7733 7.57935,-42.46171 8.13991,-43.64516 0.85836,-1.81215 5.76412,-3.78619 18.27068,-7.35196 4.76495,-1.35855 9.27146,-2.84688 10.01446,-3.30741 0.743,-0.46053 1.63136,-0.83733 1.97413,-0.83733 0.96966,0 2.07792,3.13833 5.13398,14.53808 1.55497,5.80035 3.91072,13.935 5.235,18.077 1.3243,4.142 2.35306,7.55748 2.28617,7.58996 -0.0669,0.0325 -3.00363,0.89403 -6.52606,1.91455 -3.52243,1.02051 -14.61172,4.46998 -24.64287,7.66548 -18.03236,5.74436 -19.88084,6.24231 -19.8854,5.35679 z"
       id="path378" />
    <path
       style="fill:#ff2a2a;stroke:#ac3a12;stroke-width:2;stroke-dasharray:none;stroke-opacity:1;stop-color:#000000"
       d="m 235.76631,371.77674 c 1.34188,-0.71348 7.61551,-4.03205 13.94141,-7.37459 18.12121,-9.57505 29.64826,-17.99519 42.51154,-31.05329 13.44395,-13.64758 19.85873,-22.34934 27.50996,-37.31773 7.8274,-15.31306 10.99668,-26.39798 13.66797,-47.80532 2.87461,-23.03675 -0.70905,-49.4241 -9.81911,-72.30036 -10.20935,-25.63669 -22.21423,-44.56018 -38.51182,-60.7068 C 268.54571,98.851131 255.56312,89.46189 235.63064,79.465944 221.6209,72.440197 215.27082,69.979778 204.00335,67.21156 c -13.22381,-3.248855 -18.6696,-3.848185 -34.72097,-3.82117 -15.79183,0.02657 -26.41706,1.049332 -40.3071,3.879849 -4.81039,0.980265 -9.41362,1.782299 -10.22941,1.782299 -0.81577,0 -1.62894,0.376219 -1.80704,0.836042 -0.17811,0.459821 -2.2342,1.559274 -4.5691,2.443227 -2.33491,0.883951 -4.73137,2.139328 -5.32547,2.789725 -0.59411,0.650396 -1.39376,1.182538 -1.777,1.182538 -0.38324,0 -3.39227,1.644865 -6.686743,3.655256 -3.294468,2.01039 -6.118479,3.527913 -6.275577,3.372264 -0.528474,-0.523573 9.09107,-7.67565 12.85689,-9.559016 10.36709,-5.184816 22.26329,-9.003752 34.54675,-11.090258 7.53589,-1.28007 28.35924,-1.798319 39.3329,-0.978913 13.36345,0.997853 11.94965,-0.518471 -2.43977,-2.616703 -30.06489,-4.383995 -55.35359,-3.430867 -74.33383,2.801633 -6.396644,2.100451 -17.378186,7.613847 -24.477158,12.289008 -2.809405,1.850185 -7.467243,5.867172 -10.978998,9.46844 -16.612483,17.035919 -27.561096,39.165939 -32.244008,65.173609 -1.53579,8.52937 -4.657627,33.00787 -4.657627,36.52071 0,0.96319 -0.145983,1.60664 -0.324407,1.42987 -0.839322,-0.83156 -5.208304,-18.47201 -6.106532,-24.6561 -1.530337,-10.53601 -1.868226,-32.20708 -0.662198,-42.47114 1.806955,-15.37833 4.649454,-26.443256 8.995412,-35.016198 1.302035,-2.568426 2.367336,-5.075196 2.367336,-5.57059 0,-3.250929 12.932203,-23.450446 19.891194,-31.069146 4.172954,-4.568549 13.243536,-12.151775 17.130034,-14.321124 1.61157,-0.89954 4.108862,-2.440813 5.549537,-3.425053 3.548006,-2.423922 11.641737,-5.835721 20.984004,-8.845514 15.818571,-5.096258 23.474441,-6.192554 43.188731,-6.184488 15.00054,0.0061 24.83947,0.623955 40.25309,2.527615 17.86668,2.206625 36.77785,6.103707 49.10053,10.118292 6.51121,2.121279 20.6973,8.073755 28.53053,11.971393 16.60623,8.262893 36.63279,23.856432 51.82648,40.35432 7.37654,8.009728 21.00249,25.681113 25.66594,33.285933 5.95491,9.71086 14.20401,28.05973 19.01708,42.3006 2.67999,7.92952 7.30566,26.72113 8.55316,34.74693 1.05348,6.77746 1.19237,24.55996 0.25858,33.10893 -0.90366,8.27332 -4.46305,25.50948 -6.69068,32.39928 -3.8716,11.97435 -14.2472,33.47134 -21.02774,43.56692 -4.02277,5.98952 -14.70143,18.77575 -21.62976,25.89866 -5.35561,5.50603 -16.60459,14.86578 -19.8495,16.51586 -1.00641,0.51177 -2.51601,1.54915 -3.35469,2.30528 -3.05607,2.75531 -10.89976,7.51029 -20.7381,12.57182 -11.50423,5.91856 -32.93095,15.47057 -35.67011,15.9017 -1.74282,0.27432 -1.71076,0.22035 0.5983,-1.00741 z"
       id="path380" />
  </g>
</svg>
